<?xml version="1.0" encoding="utf-8"?>
<!-- Generator: Adobe Illustrator 24.2.0, SVG Export Plug-In . SVG Version: 6.00 Build 0)  -->
<svg version="1.1" id="Calque_1" xmlns="http://www.w3.org/2000/svg" xmlns:xlink="http://www.w3.org/1999/xlink" x="0px" y="0px"
	 viewBox="0 0 283.46 283.46" style="enable-background:new 0 0 283.46 283.46;" xml:space="preserve">
<style type="text/css">
	.st0{fill:#020204;}
</style>
<path class="st0" d="M159.26,124.83c-17.14-13.64-25.1-20.88-25.1-40.02V66.08c0-3.78,3.7-6.85,7.49-6.85
	c3.78,0,7.39,3.07,7.39,6.85v43.58h50.2c0,0,0.06-29.63,0.06-33.79c0-10.15-2.1-49.96-58.28-49.96c-36.72,0-58,19.88-58,50.52
	c0,12.49,0.02,4.28,0.02,8.35c0,30.18,9.54,42.05,24.76,56.13c15.63,14.45,41.24,29.69,41.24,47.09v29.5c0,3.78-3.6,6.85-7.39,6.85
	c-3.78,0-7.49-3.07-7.49-6.85v-46.76c0,0-48.82,0-50.23,0v38.09c0,28.95,18.44,48.68,57.08,48.68c42.59,0,59.44-21.46,59.44-50.41
	v-16.14C200.45,156.84,181.23,142.31,159.26,124.83z"/>
<path class="st0" d="M275.46,8v267.46H8V8H275.46 M283.46,0H0v283.46h283.46V0L283.46,0z"/>
</svg>
