<?xml version="1.0" encoding="utf-8"?>
<!-- Generator: Adobe Illustrator 24.1.2, SVG Export Plug-In . SVG Version: 6.00 Build 0)  -->
<svg version="1.1" id="Calque_1" xmlns="http://www.w3.org/2000/svg" xmlns:xlink="http://www.w3.org/1999/xlink" x="0px" y="0px"
	 viewBox="0 0 1181.2 215.29" style="enable-background:new 0 0 1181.2 215.29;" xml:space="preserve">
<style type="text/css">
	.st0{fill:#010102;}
</style>
<g>
	<path class="st0" d="M838.78,87.2l0-21.46c0-19.62-12.53-33.33-38.09-33.33c-25.28,0-38.09,13.28-38.09,33.33v86.34
		c0,17,9.66,31.85,38.09,31.85c27.86,0,38.09-13.85,38.09-31.85v-31.9h-33.61v37.57c0,2.47-2.01,4.48-4.48,4.48
		c-2.47,0-4.48-2.01-4.48-4.48V58.69c0-2.47,2.01-4.48,4.48-4.48c2.47,0,4.48,2.01,4.48,4.48l0,28.51H838.78z"/>
	<path class="st0" d="M159.71,157.75c0,2.47-1.9,4.48-4.39,4.48c-2.65,0-4.39-2.01-4.39-4.48V34.16c-8.36,0.12-25.81-0.09-33.61,0
		c0,0,0,88.74,0,117.13c0,3.23-0.17,5.74,0,8.81c0.46,8.45,2.18,15.88,8.29,20.11c3.37,2.33,8.04,3.72,14.64,3.72
		c9.8,0,15.98-5.08,19.46-12.91v11.45h33.61V34.16h-33.61V157.75z"/>
	<path class="st0" d="M721.26,157.75c0,2.47-1.9,4.48-4.39,4.48c-2.65,0-4.39-2.01-4.39-4.48V34.16c-8.36,0.12-25.81-0.09-33.61,0
		c0,0,0,88.74,0,117.13c0,3.23-0.17,5.74,0,8.81c0.46,8.45,2.18,15.88,8.29,20.11c3.37,2.33,8.04,3.72,14.64,3.72
		c9.8,0,15.98-5.08,19.46-12.91v11.45h33.61V34.16h-33.61V157.75z"/>
	<path class="st0" d="M947.35,157.75c0,2.47-1.9,4.48-4.39,4.48c-2.65,0-4.39-2.01-4.39-4.48V34.16c-8.36,0.12-25.81-0.09-33.61,0
		c0,0,0,88.74,0,117.13c0,3.23-0.17,5.74,0,8.81c0.46,8.45,2.18,15.88,8.29,20.11c3.37,2.33,8.04,3.72,14.64,3.72
		c9.8,0,15.98-5.08,19.46-12.91v11.45h33.61V34.16h-33.61V157.75z"/>
	<path class="st0" d="M662.59,36.14c-3.37-2.33-8.04-3.72-14.64-3.72c-9.8,0-15.98,5.17-19.46,13V34.16h-33.61V182.3h33.61V58.69
		c0-2.47,1.72-4.48,4.39-4.48c2.43,0,4.39,1.76,4.39,5.23v51.66c7.42,0.01,26.42,0.01,33.61,0l0.17-45.35
		c0-3.23-0.01-6.42-0.17-9.49C670.42,47.8,668.7,40.37,662.59,36.14z"/>
	<path class="st0" d="M436.5,36.14c-3.37-2.33-8.04-3.72-14.64-3.72c-9.8,0-15.98,5.17-19.46,13V34.16h-33.61V182.3h33.61V58.69
		c0-2.47,1.59-4.48,4.39-4.48c2.61,0,4.39,2.01,4.39,4.48v52.41c7.42,0.01,26.42,0.01,33.61,0l0.17-45.35
		c0-3.23-0.01-6.42-0.17-9.49C444.33,47.8,442.61,40.37,436.5,36.14z"/>
	<path class="st0" d="M1056.42,36.14c-3.37-2.33-8.04-3.72-14.64-3.72c-9.8,0-15.98,5.17-19.46,13V34.16H988.7V182.3h33.61V58.69
		c0-2.47,1.59-4.48,4.39-4.48c2.61,0,4.39,2.01,4.39,4.48v52.41c7.42,0.01,26.42,0.01,33.61,0l0.17-45.35
		c0-3.23-0.01-6.42-0.17-9.49C1064.24,47.8,1062.52,40.37,1056.42,36.14z"/>
	<path class="st0" d="M268.77,36.14c-3.37-2.33-8.04-3.72-14.64-3.72c-9.8,0-15.98,5.17-19.46,13V34.16h-33.61v170.75h33.61
		c0.08-8.81-0.06-25.96,0-33.89c3.48,7.83,9.67,12.91,19.46,12.91c6.6,0,11.27-1.39,14.64-3.72c6.11-4.23,7.83-10.18,8.29-18.63
		V56.25C276.6,47.8,274.88,40.37,268.77,36.14z M243.45,157.75c0,2.47-1.83,4.48-4.39,4.48c-2.48,0-4.39-2.01-4.39-4.48V58.69
		c0-2.47,1.49-4.48,4.39-4.48c3.19,0,4.39,2.01,4.39,4.48V157.75z"/>
	<path class="st0" d="M323.01,32.42c-25.28,0-38.09,13.28-38.09,33.33v84.86c0,17,9.66,33.33,38.09,33.33
		c27.86,0,38.09-15.33,38.09-33.33v-30.42h-33.61v37.57c0,2.47-2.01,4.48-4.48,4.48c-2.47,0-4.48-2.01-4.48-4.48V111.1h42.57V65.74
		C361.1,46.12,348.56,32.42,323.01,32.42z M327.49,87.2h-8.96V58.69c0-2.47,2.01-4.48,4.48-4.48c2.47,0,4.48,2.01,4.48,4.48V87.2z"
		/>
	<path class="st0" d="M1147.7,111.1V65.74c0-19.62-12.54-33.33-38.09-33.33c-25.28,0-38.09,13.28-38.09,33.33v84.86
		c0,17,9.66,33.33,38.09,33.33c27.86,0,38.09-15.33,38.09-33.33v-30.42h-33.61v37.57c0,2.47-2.01,4.48-4.48,4.48
		c-2.47,0-4.48-2.01-4.48-4.48V111.1H1147.7z M1105.13,58.69c0-2.47,2.01-4.48,4.48-4.48c2.47,0,4.48,2.01,4.48,4.48V87.2h-8.96
		V58.69z"/>
	<path class="st0" d="M887.33,11.77h-16.8h-16.8c0,5.42,0,17.14,0,22.4h-7.24v25.65h7.24v105.85c0,9.28,7.52,16.8,16.8,16.8
		c7.85,0,18.98-0.09,26.62,0v-20.24h-9.82V59.82h9.82V34.16h-9.82C887.33,28.91,887.33,17.19,887.33,11.77z"/>
	<path class="st0" d="M577.35,11.77h-16.8h-16.8c0,5.42,0,17.14,0,22.4h-7.24v25.65h7.24v105.85c0,9.28,7.52,16.8,16.8,16.8
		c7.85,0,18.98-0.09,26.62,0v-20.24h-9.82V59.82h9.82V34.16h-9.82C577.36,28.91,577.36,17.19,577.35,11.77z"/>
	<path class="st0" d="M502.68,97.12c-11.21-8.92-16.42-13.66-16.42-26.18V58.69c0-2.47,2.42-4.48,4.9-4.48
		c2.47,0,4.83,2.01,4.83,4.48V87.2h32.84c0,0,0.04-19.38,0.04-22.1c0-6.64-1.37-32.68-38.13-32.68c-24.02,0-37.94,13-37.94,33.05
		c0,8.17,0.01,2.8,0.01,5.46c0,19.74,6.24,27.51,16.2,36.72c10.23,9.46,26.98,19.42,26.98,30.81v19.3c0,2.47-2.36,4.48-4.83,4.48
		c-2.47,0-4.9-2.01-4.9-4.48v-30.59c0,0-31.93,0-32.86,0v24.92c0,18.94,12.06,31.85,37.34,31.85c27.86,0,38.88-14.04,38.88-32.97
		V140.4C529.62,118.06,517.05,108.55,502.68,97.12z"/>
	<path class="st0" d="M82.88,97.17c-11.21-8.92-16.42-13.66-16.42-26.18V58.73c0-2.47,2.42-4.48,4.9-4.48
		c2.47,0,4.83,2.01,4.83,4.48v28.51h32.84c0,0,0.04-19.38,0.04-22.1c0-6.64-1.37-32.68-38.13-32.68c-24.02,0-37.94,13-37.94,33.05
		c0,8.17,0.01,2.8,0.01,5.46c0,19.74,6.24,27.51,16.2,36.72c10.23,9.46,26.98,19.42,26.98,30.81v19.3c0,2.47-2.36,4.48-4.83,4.48
		c-2.47,0-4.9-2.01-4.9-4.48v-30.59c0,0-31.93,0-32.86,0v24.92c0,18.94,12.06,31.85,37.34,31.85c27.86,0,38.88-14.04,38.88-32.97
		v-10.56C109.83,118.11,97.25,108.6,82.88,97.17z"/>
</g>
</svg>
